<svg xmlns="http://www.w3.org/2000/svg" width="160.84" height="44.212" viewBox="0 0 160.84 44.212">
  <g id="Group_21" data-name="Group 21" transform="translate(-99.95 -83.788)">
    <g id="logo" transform="translate(99.95 83.788)">
      <g id="Layer_1" data-name="Layer 1" transform="translate(0 0)">
        <path id="Path_1" data-name="Path 1" d="M63.489,0a8.237,8.237,0,0,0-7.366,4.55L40.7,35.37H8.842A8.842,8.842,0,0,0,0,44.212H43.721A4.421,4.421,0,0,0,47.7,41.767L62.322,12.543a1.326,1.326,0,0,1,2.374,0L79.321,41.767a4.421,4.421,0,0,0,3.957,2.445h7.441L70.85,4.549A8.228,8.228,0,0,0,63.489,0Z" transform="translate(0 0)" fill="#de2a5b"/>
        <path id="Path_2" data-name="Path 2" d="M36.174,46.4l3.2-6.4H8.842A8.842,8.842,0,0,0,0,48.842H32.217A4.421,4.421,0,0,0,36.174,46.4Z" transform="translate(0 -22.315)" fill="#de2a5b"/>
        <path id="Path_3" data-name="Path 3" d="M45.021,6.4l3.2-6.4H8.842A8.842,8.842,0,0,0,0,8.842H41.064A4.421,4.421,0,0,0,45.021,6.4Z" transform="translate(0 0)" fill="#de2a5b"/>
        <path id="Path_4" data-name="Path 4" d="M283.9,42.445l-3.205,6.4h27.876A8.842,8.842,0,0,0,317.408,40h-29.56a4.421,4.421,0,0,0-3.953,2.445Z" transform="translate(-156.591 -22.315)" fill="#de2a5b"/>
        <path id="Path_5" data-name="Path 5" d="M328.581,0H307.868a4.421,4.421,0,0,0-3.935,2.445l-3.223,6.4h19.011a8.842,8.842,0,0,0,6.264-2.584A8.842,8.842,0,0,0,328.581,0Z" transform="translate(-167.759 0)" fill="#de2a5b"/>
        <path id="Path_6" data-name="Path 6" d="M223.083,6.4A4.421,4.421,0,0,0,219.131,0H177.62l3.205,6.4a4.421,4.421,0,0,0,3.953,2.445H211.69l-14.5,28.972a4.421,4.421,0,0,0,3.979,6.4h49.916a8.842,8.842,0,0,0,8.842-8.842H208.591Z" transform="translate(-99.09 0)" fill="#de2a5b"/>
      </g>
    </g>
  </g>
</svg>
